# xmcd
#
# Track frame offsets:
#	150
#	14134
#	27130
#	47128
#	58014
#	68432
#	80915
#	92831
#	110108
#	124316
#	134328
#	154349
#	164491
#	184086
#	197165
#	212267
#
# Disc length: 3007 seconds
# Revision: 0
# Processed by: cddbd v1.5.2PL0 Copyright (c) Steve Scherf et al.
# Submitted via: dBpowerAMP V12.0
#
DISCID=ea0bbd10
DTITLE=Belle Monroe and Her Brewglass Boys - Belle Monroe and Her Brewglass Boys
DYEAR=2007
DGENRE=Country
TTITLE0=Fire on the Mountain
TTITLE1=Feel It in Your Bones
TTITLE2=Tear My Stillhouse Down
TTITLE3=Baby Let Me Follow You Down
TTITLE4=Johnson County
TTITLE5=The Blues My Naughty Sweetie Gives to Me
TTITLE6=Love, Please Come Home
TTITLE7=Sitting Alone in the Moonlight
TTITLE8=Leaving Wins My Heart
TTITLE9=I Ain't Got No Home
TTITLE10=Walls of Time
TTITLE11=Life Without Parole
TTITLE12=Greenville Trestle High
TTITLE13=It Takes a Lot to Laugh (It Takes a Train to Cry)
TTITLE14=Doreen
TTITLE15=Trainwreck of Emotion
EXTD=
EXTT0=
EXTT1=
EXTT2=
EXTT3=
EXTT4=
EXTT5=
EXTT6=
EXTT7=
EXTT8=
EXTT9=
EXTT10=
EXTT11=
EXTT12=
EXTT13=
EXTT14=
EXTT15=
PLAYORDER=
